<?xml version="1.0" encoding="UTF-8" standalone="no"?>
<svg
   width="369.00195"
   height="379.76953"
   version="1.1"
   id="svg2"
   xmlns="http://www.w3.org/2000/svg"
   xmlns:svg="http://www.w3.org/2000/svg">
  <defs
     id="defs2" />
  <g
     fill="none"
     fill-rule="evenodd"
     id="g2"
     transform="translate(14.316894,0.35187)"
     style="fill:#edaea0;fill-opacity:1">
    <path
       d="M 317.82223,77.650582 194.52876,6.4670654 c -14.56005,-8.4062496 -32.49877,-8.4062497 -47.05882,-2e-7 L 24.17647,77.650582 C 9.61642,86.056831 0.64705813,101.59222 0.6470585,118.40472 l 3e-7,142.36703 c -5.3e-7,16.8125 8.9693605,32.34789 23.5294122,40.75414 l 123.293469,71.18352 c 14.56005,8.40624 32.49877,8.40624 47.05882,0 l 123.29347,-71.18352 c 14.56005,-8.40625 23.52941,-23.94164 23.52941,-40.75414 V 118.40472 c 0,-16.8125 -8.96936,-32.347889 -23.52941,-40.754138 z"
       fill="#e74c3c"
       id="path1"
       style="fill:#edaea0;fill-opacity:1" />
  </g>
  <g
     id="g3"
     transform="translate(-4.7675781,-15.519531)">
    <path
       id="rect2"
       style="fill:#ffffff;stroke-width:15.8043;stroke-linecap:round;stroke-linejoin:round"
       d="m 193.59961,15.519531 v 53.56836 8.423828 57.375001 8.42383 58.5664 h 168.16992 v 8.42383 H 193.59961 v 39.23438 8.42382 65.20899 8.42383 63.69726 h -8.42383 v -92.5 H 20.326172 v -8.42383 H 185.17578 V 122.08984 H 14.767578 v -8.42382 H 185.17578 V 15.519531 Z" />
  </g>
  <g
     id="layer1"
     transform="translate(-4.7675781,-15.519531)">
    <path
       d="m 151.7988,303.34726 c 3.95294,0 6.58823,-1.42745 7.90588,-4.28235 1.31765,-2.8549 2.41569,-5.81961 3.29412,-8.89412 0.65882,-3.73333 1.92157,-8.5098 3.78823,-14.32941 1.86667,-5.81961 4.11765,-11.69412 6.75294,-17.62353 2.6353,-5.92941 5.5451,-11.3098 8.72942,-16.14117 3.18431,-4.83137 6.53333,-8.01569 10.04705,-9.55294 1.97648,3.95294 3.29412,8.67451 3.95295,14.1647 0.65882,5.4902 1.70196,10.70588 3.12941,15.64706 1.42745,4.94118 3.73333,9.11373 6.91764,12.51765 3.18432,3.40392 8.2902,5.10588 15.31765,5.10588 3.95294,0 8.2902,-1.26274 13.01177,-3.78823 4.72157,-2.52549 9.05882,-5.76471 13.01176,-9.71765 3.95294,-3.95294 7.30196,-8.2353 10.04706,-12.84706 2.7451,-4.61177 4.11765,-8.89412 4.11765,-12.84706 0,-1.97647 -0.60392,-3.84314 -1.81177,-5.6 -1.20784,-1.75686 -3.01961,-2.63529 -5.43529,-2.63529 -2.6353,0 -4.83137,1.59215 -6.58824,4.77647 -1.75686,3.18431 -3.62353,6.64313 -5.6,10.37647 -1.97647,3.73333 -4.44706,7.19215 -7.41176,10.37647 -2.96471,3.18431 -6.86275,4.77647 -11.69412,4.77647 -2.8549,0 -4.88627,-1.20784 -6.09412,-3.62353 -1.20784,-2.41569 -2.14117,-5.38039 -2.8,-8.89412 -0.65882,-3.51372 -1.26274,-7.41176 -1.81176,-11.69412 -0.54902,-4.28235 -1.42745,-8.18039 -2.6353,-11.69411 -1.20784,-3.51373 -3.07451,-6.47843 -5.6,-8.89412 -2.52549,-2.41569 -5.98431,-3.62353 -10.37647,-3.62353 -2.8549,0 -5.7647,1.09804 -8.72941,3.29412 -2.9647,2.19608 -5.7647,4.77647 -8.4,7.74117 -2.63529,2.96471 -5.05098,6.03922 -7.24706,9.22353 -2.19608,3.18432 -3.95294,5.87451 -5.27059,8.07059 l 1.31765,-17.78823 c 6.36863,-6.58824 12.40785,-13.8353 18.11765,-21.74118 5.7098,-7.90588 10.70588,-16.25098 14.98823,-25.03529 4.28236,-8.78432 7.68628,-17.84314 10.21177,-27.17648 2.52549,-9.33332 3.78823,-18.72155 3.78823,-28.16469 0,-2.6353 -0.1647,-5.4902 -0.49411,-8.56471 -0.32942,-3.07451 -1.09804,-5.92941 -2.30589,-8.56471 -1.20784,-2.63529 -2.8549,-4.77647 -4.94117,-6.423534 -2.08628,-1.64706 -4.88628,-2.47059 -8.4,-2.47059 -6.80785,0 -12.73726,3.07451 -17.78824,9.223534 -5.05098,6.14903 -9.38823,14.05491 -13.01176,23.71766 -3.62353,9.66274 -6.58824,20.42352 -8.89412,32.28234 -2.30588,11.85882 -4.17255,23.44314 -5.6,34.75294 -1.42745,11.3098 -2.41569,21.74118 -2.96471,31.29412 -0.54902,9.55294 -0.82353,16.8549 -0.82353,21.90588 0,7.24706 -0.1647,14.38431 -0.49411,21.41176 -0.32941,7.02746 -1.26275,14.05491 -2.8,21.08236 -0.21961,0.43921 -0.32941,1.20784 -0.32941,2.30588 0,2.41569 0.71372,4.44706 2.14117,6.09412 1.42745,1.64706 3.34902,2.47059 5.76471,2.47058 z m 14.49412,-100.14117 c 0.65882,-5.27059 1.81176,-12.18824 3.45882,-20.75294 1.64706,-8.56471 3.67843,-17.29412 6.09412,-26.18824 2.41568,-8.89412 5.16078,-17.2392 8.23529,-25.03528 3.07451,-7.79608 6.47843,-13.34118 10.21177,-16.6353 0.87843,1.97648 1.42745,4.06275 1.64705,6.25883 0.21961,2.19608 0.32942,4.39216 0.32942,6.58823 0,6.58824 -0.87844,13.28628 -2.6353,20.09411 -1.75686,6.80784 -4.00784,13.50588 -6.75294,20.09412 -2.7451,6.58823 -5.92941,12.90196 -9.55294,18.94118 -3.62353,6.03921 -7.30196,11.58431 -11.03529,16.63529 z m 68.07152,-88.08093 c 1.90495,0 3.47859,-0.76612 4.72095,-2.29836 1.24235,-1.53223 1.86353,-3.20941 1.86353,-5.03153 0,-1.24235 -0.352,-2.42259 -1.056,-3.54071 -0.704,-1.11811 -1.76,-1.67717 -3.168,-1.67717 -1.07671,0 -2.02918,0.28988 -2.85742,0.86965 -0.82823,0.57976 -1.51153,1.30447 -2.04988,2.17411 -0.53835,0.86965 -0.93176,1.82212 -1.18023,2.85741 -0.24847,1.0353 -0.37271,2.00848 -0.37271,2.91954 0,1.15953 0.39341,2.07059 1.18024,2.73317 0.78682,0.66259 1.76,0.99389 2.91952,0.99389 z m 0.49695,36.15246 c 2.73317,0 5.3007,-0.86965 7.70258,-2.60894 0.91106,-0.74541 2.02918,-1.76 3.35436,-3.04376 1.32517,-1.28376 2.58823,-2.69176 3.78917,-4.224 1.20094,-1.53223 2.21553,-3.06447 3.04377,-4.5967 0.82823,-1.53224 1.24235,-2.91953 1.24235,-4.16189 0,-0.74541 -0.24847,-1.36658 -0.74541,-1.86352 -0.49694,-0.49695 -1.11812,-0.74542 -1.86353,-0.74542 -0.57976,0 -1.09741,0.18636 -1.55294,0.55906 -0.45553,0.37271 -0.84894,0.76612 -1.18024,1.18024 -0.49694,0.91106 -1.20094,2.112 -2.112,3.60282 -0.91106,1.49082 -1.92564,2.94024 -3.04376,4.34824 -1.11812,1.408 -2.29835,2.62964 -3.54071,3.66494 -1.24235,1.03529 -2.4847,1.55294 -3.72706,1.55294 -0.74541,0 -1.34588,-0.18635 -1.80141,-0.55906 -0.45553,-0.37271 -0.76612,-0.82824 -0.93176,-1.36659 -0.16565,-0.53835 -0.26918,-1.13882 -0.31059,-1.80141 -0.0414,-0.66259 -0.0621,-1.28376 -0.0621,-1.86353 0,-1.32518 0.12424,-2.71247 0.37271,-4.16188 0.24847,-1.44941 0.51764,-2.85741 0.80753,-4.224 0.28988,-1.36659 0.55906,-2.65035 0.80753,-3.8513 0.24847,-1.20094 0.3727,-2.25694 0.3727,-3.168 0,-0.91105 -0.26917,-1.67717 -0.80753,-2.29835 -0.53835,-0.62118 -1.26306,-0.93176 -2.17411,-0.93176 -1.408,0 -2.50542,0.80753 -3.29224,2.42258 -0.78682,1.61506 -1.38729,3.47859 -1.80141,5.59059 -0.41412,2.112 -0.66259,4.224 -0.74541,6.336 -0.0828,2.112 -0.12424,3.66494 -0.12424,4.65883 0,1.408 0.12424,2.79529 0.37271,4.16188 0.24847,1.36659 0.68329,2.60894 1.30447,3.72705 0.62117,1.11812 1.47012,2.00847 2.54682,2.67106 1.07671,0.66258 2.4433,0.99388 4.09977,0.99388 z m 27.8827,-2.60894 c 2.07058,0 4.12047,-0.43483 6.14964,-1.30447 2.02918,-0.86964 3.95483,-1.98776 5.77694,-3.35435 1.82212,-1.36659 3.45789,-2.94023 4.9073,-4.72094 1.44941,-1.7807 2.62964,-3.5407 3.5407,-5.28 0.24847,-0.33129 0.37271,-0.78682 0.37271,-1.36659 0,-0.74541 -0.24847,-1.38729 -0.74541,-1.92564 -0.49694,-0.53836 -1.11812,-0.80753 -1.86353,-0.80753 -0.66259,0 -1.09741,0.10353 -1.30447,0.31059 -0.20706,0.20706 -0.51765,0.55906 -0.93177,1.056 -0.91106,1.24235 -1.88423,2.50541 -2.91953,3.78917 -1.03529,1.28377 -2.17411,2.4433 -3.41647,3.47859 -1.24235,1.03529 -2.58823,1.88424 -4.03764,2.54682 -1.44942,0.66259 -3.04377,0.99389 -4.78306,0.99389 -1.90494,0 -3.4993,-0.53836 -4.78306,-1.61506 -1.28377,-1.07671 -2.13271,-2.56753 -2.54683,-4.47247 1.82212,-0.0828 3.62353,-0.55906 5.40424,-1.42871 1.78071,-0.86965 3.35435,-2.00847 4.72094,-3.41647 1.36659,-1.408 2.48471,-2.98165 3.35435,-4.72094 0.86965,-1.73929 1.30447,-3.56141 1.30447,-5.46635 0,-2.15341 -0.60047,-3.93412 -1.80141,-5.34212 -1.20094,-1.408 -2.87811,-2.112 -5.03153,-2.112 -2.31906,0 -4.41035,0.64188 -6.27388,1.92565 -1.86353,1.28376 -3.43718,2.89882 -4.72094,4.84517 -1.28376,1.94636 -2.25694,4.07906 -2.91953,6.39812 -0.66259,2.31906 -0.99388,4.51388 -0.99388,6.58447 0,1.98776 0.31059,3.91341 0.93176,5.77694 0.62118,1.86353 1.51153,3.4993 2.67106,4.9073 1.15953,1.408 2.56753,2.54682 4.224,3.41646 1.65647,0.86964 3.56141,1.30447 5.71483,1.30447 z m -5.34212,-19.13223 c -0.3313,0 -0.82824,-0.0828 -1.49083,-0.24847 0.0828,-0.82823 0.31059,-1.82212 0.6833,-2.98165 0.3727,-1.15952 0.84894,-2.25694 1.4287,-3.29223 0.57977,-1.03529 1.30447,-1.90494 2.17412,-2.60894 0.86965,-0.704 1.84283,-1.056 2.91953,-1.056 0.57977,0 1.01459,0.41412 1.30447,1.24235 0.28988,0.82824 0.43483,1.44941 0.43483,1.86353 0,0.82824 -0.22777,1.65647 -0.6833,2.48471 -0.45553,0.82823 -1.056,1.59435 -1.80141,2.29835 -0.74541,0.704 -1.55294,1.26306 -2.42259,1.67718 -0.86964,0.41411 -1.71859,0.62117 -2.54682,0.62117 z"
       fill="#ffffff"
       fill-rule="nonzero"
       id="path2-1"
       style="fill:#68220f;fill-opacity:1" />
  </g>
</svg>
